<svg width="297" height="291" viewBox="0 0 297 291" fill="none" xmlns="http://www.w3.org/2000/svg">
<path fill-rule="evenodd" clip-rule="evenodd" d="M115.5 10.5C116.637 14.5786 117.971 18.5786 119.5 22.5C120.488 26.4848 121.488 30.4848 122.5 34.5C74.691 50.9756 45.6908 83.976 35.5 133.5C32.1667 133.167 28.8333 132.833 25.5 132.5C20.293 131.508 14.9596 130.508 9.5 129.5C6.5448 128.841 3.5448 128.508 0.5 128.5C11.3102 71.5197 42.9769 30.6864 95.5 6C100.467 4.0666 105.467 2.2333 110.5 0.5C111.167 0.8333 111.833 1.1667 112.5 1.5C113.635 4.5816 114.635 7.5816 115.5 10.5Z" fill="#090C0C"/>
<path fill-rule="evenodd" clip-rule="evenodd" d="M287.5 190.5C282.835 189.943 278.502 188.61 274.5 186.5C289.032 133.802 276.365 88.635 236.5 51C202.148 23.1562 163.148 13.6562 119.5 22.5C117.971 18.5786 116.637 14.5786 115.5 10.5C175.884 -1.8745 225.717 15.4588 265 62.5C293.284 101.43 300.784 144.097 287.5 190.5Z" fill="#DED2AF"/>
<path fill-rule="evenodd" clip-rule="evenodd" d="M93.5 16.5C94.675 16.281 95.675 16.6143 96.5 17.5C98.688 20.5218 101.355 23.0218 104.5 25C102.76 26.827 101.093 26.6603 99.5 24.5C98.833 24.8333 98.167 25.1667 97.5 25.5C96.935 27.5096 95.935 29.1763 94.5 30.5C93.507 25.8804 93.173 21.2137 93.5 16.5Z" fill="#D0C5A4"/>
<path fill-rule="evenodd" clip-rule="evenodd" d="M95.5 20.5C98.861 21.2032 99.194 22.5365 96.5 24.5C95.571 23.3112 95.238 21.9778 95.5 20.5Z" fill="#282822"/>
<path fill-rule="evenodd" clip-rule="evenodd" d="M74.5 26.5C76.831 30.0316 79.498 33.5316 82.5 37C82 37.5 81.5 38 81 38.5C78.957 36.792 77.29 34.792 76 32.5C75.982 34.7972 76.149 37.1305 76.5 39.5C73.625 38.8714 70.958 38.0381 68.5 37C70.046 39.2568 71.712 41.4235 73.5 43.5C73.167 44.5 72.5 45.1667 71.5 45.5C69.9472 41.6149 67.6139 38.2816 64.5 35.5C64.8869 34.2801 65.7202 33.6135 67 33.5C69.5808 34.4172 71.914 35.7505 74 37.5C73.922 35.0052 73.422 32.5052 72.5 30C72.978 28.6974 73.645 27.5307 74.5 26.5Z" fill="#C6BC9D"/>
<path fill-rule="evenodd" clip-rule="evenodd" d="M51.5 46.5C52.7562 46.4614 53.7562 46.9614 54.5 48C51.0584 48.4271 49.5584 50.2605 50 53.5C51.8518 57.0767 54.5185 58.0767 58 56.5C58.4828 55.552 58.6495 54.552 58.5 53.5C55.0429 53.3328 54.7096 52.3328 57.5 50.5C62.7453 53.2188 62.7453 56.0521 57.5 59C52.5288 59.5537 49.1955 57.387 47.5 52.5C48.4316 50.2345 49.7649 48.2345 51.5 46.5Z" fill="#C9BF9F"/>
<path fill-rule="evenodd" clip-rule="evenodd" d="M150.5 61.5C140.833 61.5 131.167 61.5 121.5 61.5C121.5 67.5 121.5 73.5 121.5 79.5C125.371 79.185 129.038 79.518 132.5 80.5C128.5 80.5 124.5 80.5 120.5 80.5C120.5 73.833 120.5 67.1667 120.5 60.5C130.681 60.1726 140.681 60.506 150.5 61.5Z" fill="#757777"/>
<path fill-rule="evenodd" clip-rule="evenodd" d="M36.5 63.5C38.9531 67.0855 42.2865 69.7522 46.5 71.5C46.0814 72.6721 45.4147 73.672 44.5 74.5C42.0644 70.7843 38.731 68.2843 34.5 67C35.305 65.8873 35.9717 64.7206 36.5 63.5Z" fill="#CCC1A1"/>
<path fill-rule="evenodd" clip-rule="evenodd" d="M147.5 145.5C147.5 145.167 147.5 144.833 147.5 144.5C153.444 143.796 159.444 143.796 165.5 144.5C165.244 135.737 165.91 127.071 167.5 118.5C169.591 123.944 171.425 129.611 173 135.5C181.142 110.907 188.976 86.24 196.5 61.5C206.167 61.5 215.833 61.5 225.5 61.5C225.5 67.5 225.5 73.5 225.5 79.5C221.327 78.956 217.494 79.623 214 81.5C204.478 111.282 194.645 140.948 184.5 170.5C176.862 171.497 169.196 171.831 161.5 171.5C159.515 163.042 157.015 154.708 154 146.5C151.959 145.577 149.792 145.244 147.5 145.5Z" fill="#191918"/>
<path fill-rule="evenodd" clip-rule="evenodd" d="M182.5 168.5C176.077 168.791 169.744 168.458 163.5 167.5C161.295 160.218 159.295 152.884 157.5 145.5C160.5 145.5 163.5 145.5 166.5 145.5C166.334 139.158 166.5 132.825 167 126.5C169.198 132.761 171.198 139.095 173 145.5C182.006 118.65 190.506 91.65 198.5 64.5C206.5 64.5 214.5 64.5 222.5 64.5C222.5 68.5 222.5 72.5 222.5 76.5C218.649 75.971 215.149 76.638 212 78.5C201.858 108.425 192.025 138.425 182.5 168.5Z" fill="#DBCFAD"/>
<path fill-rule="evenodd" clip-rule="evenodd" d="M26.5 79.5C29.6606 82.25 33.3273 84.25 37.5 85.5C37.1667 86.167 36.8333 86.833 36.5 87.5C32.8333 88.167 29.1667 88.833 25.5 89.5C28.3194 90.743 30.9861 92.243 33.5 94C32.7248 95.23 31.7248 95.563 30.5 95C27.9952 93.247 25.3286 91.747 22.5 90.5C21.6143 89.675 21.281 88.675 21.5 87.5C25.247 87.608 28.9137 87.108 32.5 86C29.9454 84.556 27.2787 83.389 24.5 82.5C25.1925 81.482 25.8592 80.482 26.5 79.5Z" fill="#C9BE9F"/>
<path fill-rule="evenodd" clip-rule="evenodd" d="M14.5 105.5C15.2389 105.369 15.9056 105.536 16.5 106C15.1387 107.584 14.472 109.418 14.5 111.5C17.2385 112.035 19.0718 111.035 20 108.5C21.956 114.973 23.7893 114.973 25.5 108.5C26.3194 111.404 25.6528 114.071 23.5 116.5C20.1027 114.478 16.4361 113.478 12.5 113.5C12.5597 110.659 13.2264 107.993 14.5 105.5Z" fill="#C7BC9D"/>
<path fill-rule="evenodd" clip-rule="evenodd" d="M144.5 118.5C125.007 119.497 105.34 119.83 85.5 119.5C85.5 125.5 85.5 131.5 85.5 137.5C85.167 137.5 84.833 137.5 84.5 137.5C84.5 131.167 84.5 124.833 84.5 118.5C104.5 118.5 124.5 118.5 144.5 118.5Z" fill="#686A6A"/>
<path fill-rule="evenodd" clip-rule="evenodd" d="M9.5 129.5C14.9596 130.508 20.293 131.508 25.5 132.5C24.5 132.5 23.5 132.5 22.5 132.5C18.473 188.279 39.8063 231.112 86.5 261C125.599 282.374 165.266 283.874 205.5 265.5C208.008 269.182 210.008 273.182 211.5 277.5C147.099 303.631 90.932 291.631 43 241.5C16.4429 208.962 5.2762 171.628 9.5 129.5Z" fill="#DED2AF"/>
<path fill-rule="evenodd" clip-rule="evenodd" d="M150.5 61.5C156.364 80.426 162.03 99.426 167.5 118.5C165.91 127.071 165.244 135.737 165.5 144.5C159.444 143.796 153.444 143.796 147.5 144.5C147.5 142.167 147.5 139.833 147.5 137.5C137.833 137.5 128.167 137.5 118.5 137.5C117.507 146.318 117.173 155.318 117.5 164.5C128.833 164.5 140.167 164.5 151.5 164.5C151.5 170.5 151.5 176.5 151.5 182.5C140.321 182.172 129.321 182.505 118.5 183.5C118.5 192.5 118.5 201.5 118.5 210.5C128.5 210.5 138.5 210.5 148.5 210.5C148.5 208.167 148.5 205.833 148.5 203.5C154.833 203.5 161.167 203.5 167.5 203.5C167.5 212.167 167.5 220.833 167.5 229.5C141.167 229.5 114.833 229.5 88.5 229.5C88.5 223.5 88.5 217.5 88.5 211.5C90.833 211.5 93.167 211.5 95.5 211.5C95.5 186.833 95.5 162.167 95.5 137.5C92.167 137.5 88.833 137.5 85.5 137.5C85.5 131.5 85.5 125.5 85.5 119.5C105.34 119.83 125.007 119.497 144.5 118.5C140.697 105.757 136.697 93.09 132.5 80.5C129.038 79.518 125.371 79.185 121.5 79.5C121.5 73.5 121.5 67.5 121.5 61.5C131.167 61.5 140.833 61.5 150.5 61.5Z" fill="#0F100F"/>
<path fill-rule="evenodd" clip-rule="evenodd" d="M115.5 135.5C115.5 135.167 115.5 134.833 115.5 134.5C127.167 134.5 138.833 134.5 150.5 134.5C150.5 136.833 150.5 139.167 150.5 141.5C150.5 141.833 150.5 142.167 150.5 142.5C149.532 140.393 149.198 138.059 149.5 135.5C138.167 135.5 126.833 135.5 115.5 135.5Z" fill="#3E3E34"/>
<path fill-rule="evenodd" clip-rule="evenodd" d="M162.5 122.5C162.833 122.5 163.167 122.5 163.5 122.5C163.5 129.167 163.5 135.833 163.5 142.5C159.167 142.5 154.833 142.5 150.5 142.5C150.5 142.167 150.5 141.833 150.5 141.5C154.5 141.5 158.5 141.5 162.5 141.5C162.5 135.167 162.5 128.833 162.5 122.5Z" fill="#B0A78B"/>
<path fill-rule="evenodd" clip-rule="evenodd" d="M162.5 122.5C162.5 128.833 162.5 135.167 162.5 141.5C158.5 141.5 154.5 141.5 150.5 141.5C150.5 139.167 150.5 136.833 150.5 134.5C138.833 134.5 127.167 134.5 115.5 134.5C114.505 145.321 114.172 156.321 114.5 167.5C125.833 167.5 137.167 167.5 148.5 167.5C148.5 171.5 148.5 175.5 148.5 179.5C137.321 179.172 126.321 179.505 115.5 180.5C114.505 191.654 114.172 202.988 114.5 214.5C127.167 214.5 139.833 214.5 152.5 214.5C152.5 211.833 152.5 209.167 152.5 206.5C156.5 206.5 160.5 206.5 164.5 206.5C164.5 213.167 164.5 219.833 164.5 226.5C140.167 226.5 115.833 226.5 91.5 226.5C91.5 222.5 91.5 218.5 91.5 214.5C93.833 214.5 96.167 214.5 98.5 214.5C98.5 187.833 98.5 161.167 98.5 134.5C95.167 134.5 91.833 134.5 88.5 134.5C88.5 130.5 88.5 126.5 88.5 122.5C113.167 122.5 137.833 122.5 162.5 122.5Z" fill="#DFD3AF"/>
<path fill-rule="evenodd" clip-rule="evenodd" d="M163.5 122.5C163.167 122.5 162.833 122.5 162.5 122.5C137.833 122.5 113.167 122.5 88.5 122.5C88.5 126.5 88.5 130.5 88.5 134.5C87.515 130.366 87.182 126.032 87.5 121.5C113.005 121.169 138.339 121.502 163.5 122.5Z" fill="#86806B"/>
<path fill-rule="evenodd" clip-rule="evenodd" d="M147.5 64.5C139.833 64.5 132.167 64.5 124.5 64.5C124.5 68.5 124.5 72.5 124.5 76.5C128.042 76.187 131.375 76.521 134.5 77.5C130.833 77.5 127.167 77.5 123.5 77.5C123.5 72.8333 123.5 68.1667 123.5 63.5C131.684 63.1743 139.684 63.5076 147.5 64.5Z" fill="#6F6B5A"/>
<path fill-rule="evenodd" clip-rule="evenodd" d="M147.5 64.5C153.687 82.055 159.354 99.889 164.5 118C158.843 118.499 153.176 118.666 147.5 118.5C143.628 104.676 139.295 91.01 134.5 77.5C131.375 76.521 128.042 76.187 124.5 76.5C124.5 72.5 124.5 68.5 124.5 64.5C132.167 64.5 139.833 64.5 147.5 64.5Z" fill="#DCD0AD"/>
<path fill-rule="evenodd" clip-rule="evenodd" d="M88.5 134.5C91.833 134.5 95.167 134.5 98.5 134.5C98.5 161.167 98.5 187.833 98.5 214.5C96.167 214.5 93.833 214.5 91.5 214.5C93.265 213.539 95.265 213.205 97.5 213.5C97.5 187.5 97.5 161.5 97.5 135.5C94.287 135.81 91.287 135.477 88.5 134.5Z" fill="#585648"/>
<path fill-rule="evenodd" clip-rule="evenodd" d="M118.5 138.5C118.5 138.167 118.5 137.833 118.5 137.5C128.167 137.5 137.833 137.5 147.5 137.5C147.5 139.833 147.5 142.167 147.5 144.5C147.5 144.833 147.5 145.167 147.5 145.5C146.532 143.393 146.198 141.059 146.5 138.5C137.167 138.5 127.833 138.5 118.5 138.5Z" fill="#B9BABA"/>
<path fill-rule="evenodd" clip-rule="evenodd" d="M84.5 137.5C84.833 137.5 85.167 137.5 85.5 137.5C88.833 137.5 92.167 137.5 95.5 137.5C95.5 162.167 95.5 186.833 95.5 211.5C93.167 211.5 90.833 211.5 88.5 211.5C88.5 217.5 88.5 223.5 88.5 229.5C87.51 223.355 87.177 217.022 87.5 210.5C89.833 210.5 92.167 210.5 94.5 210.5C94.5 186.5 94.5 162.5 94.5 138.5C90.958 138.813 87.625 138.479 84.5 137.5Z" fill="#9A9B9B"/>
<path fill-rule="evenodd" clip-rule="evenodd" d="M118.5 137.5C118.5 137.833 118.5 138.167 118.5 138.5C118.5 146.833 118.5 155.167 118.5 163.5C129.833 163.5 141.167 163.5 152.5 163.5C152.5 170.167 152.5 176.833 152.5 183.5C141.167 183.5 129.833 183.5 118.5 183.5C129.321 182.505 140.321 182.172 151.5 182.5C151.5 176.5 151.5 170.5 151.5 164.5C140.167 164.5 128.833 164.5 117.5 164.5C117.173 155.318 117.507 146.318 118.5 137.5Z" fill="#737676"/>
<path fill-rule="evenodd" clip-rule="evenodd" d="M115.5 134.5C115.5 134.833 115.5 135.167 115.5 135.5C115.5 145.833 115.5 156.167 115.5 166.5C126.833 166.5 138.167 166.5 149.5 166.5C149.5 171.167 149.5 175.833 149.5 180.5C138.167 180.5 126.833 180.5 115.5 180.5C126.321 179.505 137.321 179.172 148.5 179.5C148.5 175.5 148.5 171.5 148.5 167.5C137.167 167.5 125.833 167.5 114.5 167.5C114.172 156.321 114.505 145.321 115.5 134.5Z" fill="#74705E"/>
<path fill-rule="evenodd" clip-rule="evenodd" d="M163.5 167.5C169.744 168.458 176.077 168.791 182.5 168.5C179.518 169.165 176.352 169.498 173 169.5C169.424 169.485 166.258 168.818 163.5 167.5Z" fill="#545345"/>
<path fill-rule="evenodd" clip-rule="evenodd" d="M274.5 186.5C278.502 188.61 282.835 189.943 287.5 190.5C290.387 192.083 293.387 193.583 296.5 195C281.937 234.559 256.27 264.559 219.5 285C218.5 285.667 217.5 285.667 216.5 285C215.182 282.176 213.515 279.676 211.5 277.5C210.008 273.182 208.008 269.182 205.5 265.5C204.246 261.824 202.579 258.324 200.5 255C230.605 238.729 251.605 214.563 263.5 182.5C267.037 184.234 270.704 185.568 274.5 186.5Z" fill="#080B0B"/>
<path fill-rule="evenodd" clip-rule="evenodd" d="M265.5 199.5C266.239 199.369 266.906 199.536 267.5 200C264.849 202.524 265.016 204.691 268 206.5C268.368 205.09 269.201 204.09 270.5 203.5C270.749 204.582 270.915 205.915 271 207.5C272 208.833 273 208.833 274 207.5C274.49 206.207 274.657 204.873 274.5 203.5C275.675 203.281 276.675 203.614 277.5 204.5C276.42 206.996 275.086 209.33 273.5 211.5C270.339 210.087 267.339 208.42 264.5 206.5C263.914 206.709 263.414 207.043 263 207.5C262.933 204.613 263.767 201.946 265.5 199.5Z" fill="#C4BA9B"/>
<path fill-rule="evenodd" clip-rule="evenodd" d="M115.5 180.5C115.5 191.5 115.5 202.5 115.5 213.5C127.5 213.5 139.5 213.5 151.5 213.5C151.198 210.941 151.532 208.607 152.5 206.5C152.5 209.167 152.5 211.833 152.5 214.5C139.833 214.5 127.167 214.5 114.5 214.5C114.172 202.988 114.505 191.654 115.5 180.5Z" fill="#7A7562"/>
<path fill-rule="evenodd" clip-rule="evenodd" d="M255.5 217.5C256.756 217.461 257.756 217.961 258.5 219C256.956 219.29 255.623 219.956 254.5 221C257.357 223.87 260.69 225.87 264.5 227C263.382 228.074 262.382 229.24 261.5 230.5C259.467 227.468 256.8 225.135 253.5 223.5C252.833 224.833 252.167 226.167 251.5 227.5C250.5 227.167 249.833 226.5 249.5 225.5C251.509 222.804 253.509 220.137 255.5 217.5Z" fill="#C4BA9B"/>
<path fill-rule="evenodd" clip-rule="evenodd" d="M239.5 236.5C246.142 236.64 248.976 239.973 248 246.5C246.475 249.087 244.308 249.92 241.5 249C235.809 245.41 235.142 241.243 239.5 236.5Z" fill="#C0B698"/>
<path fill-rule="evenodd" clip-rule="evenodd" d="M239.5 238.5C243.964 239.298 246.297 241.964 246.5 246.5C240.445 246.791 238.111 244.124 239.5 238.5Z" fill="#0B0D0C"/>
<path fill-rule="evenodd" clip-rule="evenodd" d="M224.5 249.5C226.648 249.389 226.981 250.056 225.5 251.5C226.347 254.554 227.347 257.554 228.5 260.5C228.444 261.737 227.944 262.737 227 263.5C223.778 260.612 220.278 258.112 216.5 256C217.025 255.308 217.692 254.808 218.5 254.5C220.576 256.288 222.743 257.954 225 259.5C225.154 256.768 224.654 254.102 223.5 251.5C223.863 250.817 224.196 250.15 224.5 249.5Z" fill="#CDC2A2"/>
</svg>
